<?xml version="1.0" encoding="UTF-8" standalone="no"?>
<svg
	xmlns:dc="http://purl.org/dc/elements/1.1/"
	xmlns:cc="http://creativecommons.org/ns#"
	xmlns:rdf="http://www.w3.org/1999/02/22-rdf-syntax-ns#"
	xmlns:svg="http://www.w3.org/2000/svg"
	xmlns="http://www.w3.org/2000/svg"
	xmlns:sodipodi="http://sodipodi.sourceforge.net/DTD/sodipodi-0.dtd"
	xmlns:inkscape="http://www.inkscape.org/namespaces/inkscape"
	width="20000"
	height="20000"
	id="svg2"
	version="1.1">
<g
	inkscape:label="Guides"
	inkscape:groupmode="layer"
	id="guides"
	sodipodi:insensitive="true">
	<style>
		.label-0,
		.label-1,
		.label-2,
		.label-3,
		.label-4,
		.label-5,
		.label-6,
		.label-7,
		.label-8
		{
			text-align:end;
			text-anchor:end;
			fill:#bf0000;
		}
		.label-0 { font-size:1px; }
		.label-1 { font-size:2px; }
		.label-2 { font-size:4px; }
		.label-3 { font-size:8px; }
		.label-4 { font-size:16px; }
		.label-5 { font-size:32px; }
		.label-6 { font-size:64px; }
		.label-7 { font-size:128px; }
		.label-8 { font-size:256px; }
		.guide-0,
		.guide-1,
		.guide-2,
		.guide-3,
		.guide-4,
		.guide-5,
		.guide-6,
		.guide-7,
		.guide-8
		{
			stroke:#bf0000;
		}
		.guide-0 { stroke-width:0.25px; }
		.guide-1 { stroke-width:0.5px; }
		.guide-2 { stroke-width:1px; }
		.guide-3 { stroke-width:2px; }
		.guide-4 { stroke-width:4px; }
		.guide-5 { stroke-width:8px; }
		.guide-6 { stroke-width:16px; }
		.guide-7 { stroke-width:32px; }
		.guide-8 { stroke-width:64px; }
	</style>
	<path class="guide-8" d="m 0,20000 20000,0"/>  <text y="20000"   x="-256" class="label-8">Maximum audible frequency</text>
	<path class="guide-8" d="m 0,16744 20000,0"/>  <text y="16744"   x="-256" class="label-8">C10</text>
	<path class="guide-8" d="m 0,8372 20000,0"/>   <text y="8372"    x="-256" class="label-8">C9</text>
	<path class="guide-8" d="m 0,4186.01 20000,0"/><text y="4186.01" x="-256" class="label-8">(Eighth octave) C8</text>
	<path class="guide-7" d="m 0,3951.07 20000,0"/><text y="3951.07" x="-128" class="label-7">B7</text>
	<path class="guide-7" d="m 0,3729.31 20000,0"/><text y="3729.31" x="-128" class="label-7">(B♭7) A♯7</text>
	<path class="guide-7" d="m 0,3520.00 20000,0"/><text y="3520.00" x="-128" class="label-7">A7</text>
	<path class="guide-7" d="m 0,3322.44 20000,0"/><text y="3322.44" x="-128" class="label-7">(A♭7) G♯7</text>
	<path class="guide-7" d="m 0,3135.96 20000,0"/><text y="3135.96" x="-128" class="label-7">G7</text>
	<path class="guide-7" d="m 0,2959.96 20000,0"/><text y="2959.96" x="-128" class="label-7">(G♭7) F♯7</text>
	<path class="guide-7" d="m 0,2793.83 20000,0"/><text y="2793.83" x="-128" class="label-7">F7</text>
	<path class="guide-7" d="m 0,2637.02 20000,0"/><text y="2637.02" x="-128" class="label-7">E7</text>
	<path class="guide-7" d="m 0,2489.02 20000,0"/><text y="2489.02" x="-128" class="label-7">(E♭7) D♯7</text>
	<path class="guide-7" d="m 0,2349.32 20000,0"/><text y="2349.32" x="-128" class="label-7">D7</text>
	<path class="guide-7" d="m 0,2217.46 20000,0"/><text y="2217.46" x="-128" class="label-7">(D♭7) C♯7</text>
	<path class="guide-7" d="m 0,2093.00 20000,0"/><text y="2093.00" x="-128" class="label-7">(Double high C) C7</text>
	<path class="guide-6" d="m 0,1975.53 20000,0"/><text y="1975.53" x="-64"  class="label-6">B6</text>
	<path class="guide-6" d="m 0,1864.66 20000,0"/><text y="1864.66" x="-64"  class="label-6">(B♭6) A♯6</text>
	<path class="guide-6" d="m 0,1760.00 20000,0"/><text y="1760.00" x="-64"  class="label-6">A6</text>
	<path class="guide-6" d="m 0,1661.22 20000,0"/><text y="1661.22" x="-64"  class="label-6">(A♭6) G♯6</text>
	<path class="guide-6" d="m 0,1567.98 20000,0"/><text y="1567.98" x="-64"  class="label-6">G6</text>
	<path class="guide-6" d="m 0,1479.98 20000,0"/><text y="1479.98" x="-64"  class="label-6">(G♭6) F♯6</text>
	<path class="guide-6" d="m 0,1396.91 20000,0"/><text y="1396.91" x="-64"  class="label-6">F6</text>
	<path class="guide-6" d="m 0,1318.51 20000,0"/><text y="1318.51" x="-64"  class="label-6">E6</text>
	<path class="guide-6" d="m 0,1244.51 20000,0"/><text y="1244.51" x="-64"  class="label-6">(E♭6) D♯6</text>
	<path class="guide-6" d="m 0,1174.66 20000,0"/><text y="1174.66" x="-64"  class="label-6">D6</text>
	<path class="guide-6" d="m 0,1108.73 20000,0"/><text y="1108.73" x="-64"  class="label-6">(D♭6) C♯6</text>
	<path class="guide-6" d="m 0,1046.50 20000,0"/><text y="1046.50" x="-64"  class="label-6">(Soprano C / High C) C6</text>
	<path class="guide-5" d="m 0,987.767 20000,0"/><text y="987.767" x="-32"  class="label-5">B5</text>
	<path class="guide-5" d="m 0,932.328 20000,0"/><text y="932.328" x="-32"  class="label-5">(B♭5) A♯5</text>
	<path class="guide-5" d="m 0,880.000 20000,0"/><text y="880.000" x="-32"  class="label-5">A5</text>
	<path class="guide-5" d="m 0,830.609 20000,0"/><text y="830.609" x="-32"  class="label-5">(A♭5) G♯5</text>
	<path class="guide-5" d="m 0,783.991 20000,0"/><text y="783.991" x="-32"  class="label-5">G5</text>
	<path class="guide-5" d="m 0,739.989 20000,0"/><text y="739.989" x="-32"  class="label-5">(G♭5) F♯5</text>
	<path class="guide-5" d="m 0,698.456 20000,0"/><text y="698.456" x="-32"  class="label-5">F5</text>
	<path class="guide-5" d="m 0,659.255 20000,0"/><text y="659.255" x="-32"  class="label-5">E5</text>
	<path class="guide-5" d="m 0,622.254 20000,0"/><text y="622.254" x="-32"  class="label-5">(E♭5) D♯5</text>
	<path class="guide-5" d="m 0,587.330 20000,0"/><text y="587.330" x="-32"  class="label-5">D5</text>
	<path class="guide-5" d="m 0,554.365 20000,0"/><text y="554.365" x="-32"  class="label-5">(D♭5) C♯5</text>
	<path class="guide-5" d="m 0,523.251 20000,0"/><text y="523.251" x="-32"  class="label-5">(Tenor C) C5</text>
	<path class="guide-4" d="m 0,493.883 20000,0"/><text y="493.883" x="-16"  class="label-4">B4</text>
	<path class="guide-4" d="m 0,466.164 20000,0"/><text y="466.164" x="-16"  class="label-4">(B♭4) A♯4</text>
	<path class="guide-4" d="m 0,440.000 20000,0"/><text y="440.000" x="-16"  class="label-4">(A440) A4</text>
	<path class="guide-4" d="m 0,415.305 20000,0"/><text y="415.305" x="-16"  class="label-4">(A♭4) G♯4</text>
	<path class="guide-4" d="m 0,391.995 20000,0"/><text y="391.995" x="-16"  class="label-4">G4</text>
	<path class="guide-4" d="m 0,369.994 20000,0"/><text y="369.994" x="-16"  class="label-4">(G♭4) F♯4</text>
	<path class="guide-4" d="m 0,349.228 20000,0"/><text y="349.228" x="-16"  class="label-4">F4</text>
	<path class="guide-4" d="m 0,329.628 20000,0"/><text y="329.628" x="-16"  class="label-4">E4</text>
	<path class="guide-4" d="m 0,311.127 20000,0"/><text y="311.127" x="-16"  class="label-4">(E♭4) D♯4</text>
	<path class="guide-4" d="m 0,293.665 20000,0"/><text y="293.665" x="-16"  class="label-4">D4</text>
	<path class="guide-4" d="m 0,277.183 20000,0"/><text y="277.183" x="-16"  class="label-4">(D♭4) C♯4</text>
	<path class="guide-4" d="m 0,261.626 20000,0"/><text y="261.626" x="-16"  class="label-4">(Middle C) C4</text>
	<path class="guide-3" d="m 0,246.942 20000,0"/><text y="246.942" x="-8"   class="label-3">B3</text>
	<path class="guide-3" d="m 0,233.082 20000,0"/><text y="233.082" x="-8"   class="label-3">(B♭3) A♯3</text>
	<path class="guide-3" d="m 0,220.000 20000,0"/><text y="220.000" x="-8"   class="label-3">A3</text>
	<path class="guide-3" d="m 0,207.652 20000,0"/><text y="207.652" x="-8"   class="label-3">(A♭3) G♯3</text>
	<path class="guide-3" d="m 0,195.998 20000,0"/><text y="195.998" x="-8"   class="label-3">G3</text>
	<path class="guide-3" d="m 0,184.997 20000,0"/><text y="184.997" x="-8"   class="label-3">(G♭3) F♯3</text>
	<path class="guide-3" d="m 0,174.614 20000,0"/><text y="174.614" x="-8"   class="label-3">F3</text>
	<path class="guide-3" d="m 0,164.814 20000,0"/><text y="164.814" x="-8"   class="label-3">E3</text>
	<path class="guide-3" d="m 0,155.563 20000,0"/><text y="155.563" x="-8"   class="label-3">(E♭3) D♯3</text>
	<path class="guide-3" d="m 0,146.832 20000,0"/><text y="146.832" x="-8"   class="label-3">D3</text>
	<path class="guide-3" d="m 0,138.591 20000,0"/><text y="138.591" x="-8"   class="label-3">(D♭3) C♯3</text>
	<path class="guide-3" d="m 0,130.813 20000,0"/><text y="130.813" x="-8"   class="label-3">(Low C) C3</text>
	<path class="guide-2" d="m 0,123.471 20000,0"/><text y="123.471" x="-4"   class="label-2">B2</text>
	<path class="guide-2" d="m 0,116.541 20000,0"/><text y="116.541" x="-4"   class="label-2">(B♭2) A♯2</text>
	<path class="guide-2" d="m 0,110.000 20000,0"/><text y="110.000" x="-4"   class="label-2">A2</text>
	<path class="guide-2" d="m 0,103.826 20000,0"/><text y="103.826" x="-4"   class="label-2">(A♭2) G♯2</text>
	<path class="guide-2" d="m 0,97.9989 20000,0"/><text y="97.9989" x="-4"   class="label-2">G2</text>
	<path class="guide-2" d="m 0,92.4986 20000,0"/><text y="92.4986" x="-4"   class="label-2">(G♭2) F♯2</text>
	<path class="guide-2" d="m 0,87.3071 20000,0"/><text y="87.3071" x="-4"   class="label-2">F2</text>
	<path class="guide-2" d="m 0,82.4069 20000,0"/><text y="82.4069" x="-4"   class="label-2">E2</text>
	<path class="guide-2" d="m 0,77.7817 20000,0"/><text y="77.7817" x="-4"   class="label-2">(E♭2) D♯2</text>
	<path class="guide-2" d="m 0,73.4162 20000,0"/><text y="73.4162" x="-4"   class="label-2">D2</text>
	<path class="guide-2" d="m 0,69.2957 20000,0"/><text y="69.2957" x="-4"   class="label-2">(D♭2) C♯2</text>
	<path class="guide-2" d="m 0,65.4064 20000,0"/><text y="65.4064" x="-4"   class="label-2">(Deep C) C2</text>
	<path class="guide-1" d="m 0,61.7354 20000,0"/><text y="61.7354" x="-2"   class="label-1">B1</text>
	<path class="guide-1" d="m 0,58.2705 20000,0"/><text y="58.2705" x="-2"   class="label-1">(B♭1) A♯1</text>
	<path class="guide-1" d="m 0,55.0000 20000,0"/><text y="55.0000" x="-2"   class="label-1">A1</text>
	<path class="guide-1" d="m 0,51.9131 20000,0"/><text y="51.9131" x="-2"   class="label-1">(A♭1) G♯1</text>
	<path class="guide-1" d="m 0,48.9994 20000,0"/><text y="48.9994" x="-2"   class="label-1">G1</text>
	<path class="guide-1" d="m 0,46.2493 20000,0"/><text y="46.2493" x="-2"   class="label-1">(G♭1) F♯1</text>
	<path class="guide-1" d="m 0,43.6535 20000,0"/><text y="43.6535" x="-2"   class="label-1">F1</text>
	<path class="guide-1" d="m 0,41.2034 20000,0"/><text y="41.2034" x="-2"   class="label-1">E1</text>
	<path class="guide-1" d="m 0,38.8909 20000,0"/><text y="38.8909" x="-2"   class="label-1">(E♭1) D♯1</text>
	<path class="guide-1" d="m 0,36.7081 20000,0"/><text y="36.7081" x="-2"   class="label-1">D1</text>
	<path class="guide-1" d="m 0,34.6478 20000,0"/><text y="34.6478" x="-2"   class="label-1">(D♭1) C♯1</text>
	<path class="guide-1" d="m 0,32.7032 20000,0"/><text y="32.7032" x="-2"   class="label-1">(Pedal C) C1</text>
	<path class="guide-0" d="m 0,30.8677 20000,0"/><text y="30.8677" x="-1"   class="label-0">B0</text>
	<path class="guide-0" d="m 0,29.1352 20000,0"/><text y="29.1352" x="-1"   class="label-0">(B♭0) A♯0</text>
	<path class="guide-0" d="m 0,27.5000 20000,0"/><text y="27.5000" x="-1"   class="label-0">(Double Pedal A) A0</text>
	<path class="guide-0" d="m 0,20 20000,0"/>     <text y="20"      x="-1"   class="label-0">Minimum audible frequency</text>
</g>
<g
	inkscape:label="Graph 1"
	inkscape:groupmode="layer"
	id="graph1"/>
</svg>
