<?xml version="1.0" encoding="UTF-8" standalone="no"?>
<svg
	xmlns:dc="http://purl.org/dc/elements/1.1/"
	xmlns:cc="http://creativecommons.org/ns#"
	xmlns:rdf="http://www.w3.org/1999/02/22-rdf-syntax-ns#"
	xmlns:svg="http://www.w3.org/2000/svg"
	xmlns="http://www.w3.org/2000/svg"
	xmlns:sodipodi="http://sodipodi.sourceforge.net/DTD/sodipodi-0.dtd"
	xmlns:inkscape="http://www.inkscape.org/namespaces/inkscape"
	width="20000"
	height="20000"
	id="svg2"
	version="1.1">
<g
	inkscape:label="Guides"
	inkscape:groupmode="layer"
	id="guides"
	sodipodi:insensitive="true">
	<style>
		.label {
			font-size:2px;
			text-align:end;
			text-anchor:end;
			fill:#bf0000;
		}
		.guide {
			stroke:#bf0000;
			stroke-width:0.25px;
		}
	</style>
	<text y="20000" x="0" class="label">Maximum audible frequency</text>
	<path class="guide" d="m 0,20000 20000,0"/>
	<text y="16744" x="0" class="label">C10</text>
	<path class="guide" d="m 0,16744 20000,0"/>
	<text y="8372" x="0" class="label">C9</text>
	<path class="guide" d="m 0,8372 20000,0"/>
	<text y="4186.01" x="0" class="label">(Eighth octave) C8</text>
	<path class="guide" d="m 0,4186.01 20000,0"/>
	<text y="3951.07" x="0" class="label">B7</text>
	<path class="guide" d="m 0,3951.07 20000,0"/>
	<text y="3729.31" x="0" class="label">(B♭7) A♯7</text>
	<path class="guide" d="m 0,3729.31 20000,0"/>
	<text y="3520.00" x="0" class="label">A7</text>
	<path class="guide" d="m 0,3520.00 20000,0"/>
	<text y="3322.44" x="0" class="label">(A♭7) G♯7</text>
	<path class="guide" d="m 0,3322.44 20000,0"/>
	<text y="3135.96" x="0" class="label">G7</text>
	<path class="guide" d="m 0,3135.96 20000,0"/>
	<text y="2959.96" x="0" class="label">(G♭7) F♯7</text>
	<path class="guide" d="m 0,2959.96 20000,0"/>
	<text y="2793.83" x="0" class="label">F7</text>
	<path class="guide" d="m 0,2793.83 20000,0"/>
	<text y="2637.02" x="0" class="label">E7</text>
	<path class="guide" d="m 0,2637.02 20000,0"/>
	<text y="2489.02" x="0" class="label">(E♭7) D♯7</text>
	<path class="guide" d="m 0,2489.02 20000,0"/>
	<text y="2349.32" x="0" class="label">D7</text>
	<path class="guide" d="m 0,2349.32 20000,0"/>
	<text y="2217.46" x="0" class="label">(D♭7) C♯7</text>
	<path class="guide" d="m 0,2217.46 20000,0"/>
	<text y="2093.00" x="0" class="label">(Double high C) C7</text>
	<path class="guide" d="m 0,2093.00 20000,0"/>
	<text y="1975.53" x="0" class="label">B6</text>
	<path class="guide" d="m 0,1975.53 20000,0"/>
	<text y="1864.66" x="0" class="label">(B♭6) A♯6</text>
	<path class="guide" d="m 0,1864.66 20000,0"/>
	<text y="1760.00" x="0" class="label">A6</text>
	<path class="guide" d="m 0,1760.00 20000,0"/>
	<text y="1661.22" x="0" class="label">(A♭6) G♯6</text>
	<path class="guide" d="m 0,1661.22 20000,0"/>
	<text y="1567.98" x="0" class="label">G6</text>
	<path class="guide" d="m 0,1567.98 20000,0"/>
	<text y="1479.98" x="0" class="label">(G♭6) F♯6</text>
	<path class="guide" d="m 0,1479.98 20000,0"/>
	<text y="1396.91" x="0" class="label">F6</text>
	<path class="guide" d="m 0,1396.91 20000,0"/>
	<text y="1318.51" x="0" class="label">E6</text>
	<path class="guide" d="m 0,1318.51 20000,0"/>
	<text y="1244.51" x="0" class="label">(E♭6) D♯6</text>
	<path class="guide" d="m 0,1244.51 20000,0"/>
	<text y="1174.66" x="0" class="label">D6</text>
	<path class="guide" d="m 0,1174.66 20000,0"/>
	<text y="1108.73" x="0" class="label">(D♭6) C♯6</text>
	<path class="guide" d="m 0,1108.73 20000,0"/>
	<text y="1046.50" x="0" class="label">(Soprano C / High C) C6</text>
	<path class="guide" d="m 0,1046.50 20000,0"/>
	<text y="987.767" x="0" class="label">B5</text>
	<path class="guide" d="m 0,987.767 20000,0"/>
	<text y="932.328" x="0" class="label">(B♭5) A♯5</text>
	<path class="guide" d="m 0,932.328 20000,0"/>
	<text y="880.000" x="0" class="label">A5</text>
	<path class="guide" d="m 0,880.000 20000,0"/>
	<text y="830.609" x="0" class="label">(A♭5) G♯5</text>
	<path class="guide" d="m 0,830.609 20000,0"/>
	<text y="783.991" x="0" class="label">G5</text>
	<path class="guide" d="m 0,783.991 20000,0"/>
	<text y="739.989" x="0" class="label">(G♭5) F♯5</text>
	<path class="guide" d="m 0,739.989 20000,0"/>
	<text y="698.456" x="0" class="label">F5</text>
	<path class="guide" d="m 0,698.456 20000,0"/>
	<text y="659.255" x="0" class="label">E5</text>
	<path class="guide" d="m 0,659.255 20000,0"/>
	<text y="622.254" x="0" class="label">(E♭5) D♯5</text>
	<path class="guide" d="m 0,622.254 20000,0"/>
	<text y="587.330" x="0" class="label">D5</text>
	<path class="guide" d="m 0,587.330 20000,0"/>
	<text y="554.365" x="0" class="label">(D♭5) C♯5</text>
	<path class="guide" d="m 0,554.365 20000,0"/>
	<text y="523.251" x="0" class="label">(Tenor C) C5</text>
	<path class="guide" d="m 0,523.251 20000,0"/>
	<text y="493.883" x="0" class="label">B4</text>
	<path class="guide" d="m 0,493.883 20000,0"/>
	<text y="466.164" x="0" class="label">(B♭4) A♯4</text>
	<path class="guide" d="m 0,466.164 20000,0"/>
	<text y="440.000" x="0" class="label">(A440) A4</text>
	<path class="guide" d="m 0,440.000 20000,0"/>
	<text y="415.305" x="0" class="label">(A♭4) G♯4</text>
	<path class="guide" d="m 0,415.305 20000,0"/>
	<text y="391.995" x="0" class="label">G4</text>
	<path class="guide" d="m 0,391.995 20000,0"/>
	<text y="369.994" x="0" class="label">(G♭4) F♯4</text>
	<path class="guide" d="m 0,369.994 20000,0"/>
	<text y="349.228" x="0" class="label">F4</text>
	<path class="guide" d="m 0,349.228 20000,0"/>
	<text y="329.628" x="0" class="label">E4</text>
	<path class="guide" d="m 0,329.628 20000,0"/>
	<text y="311.127" x="0" class="label">(E♭4) D♯4</text>
	<path class="guide" d="m 0,311.127 20000,0"/>
	<text y="293.665" x="0" class="label">D4</text>
	<path class="guide" d="m 0,293.665 20000,0"/>
	<text y="277.183" x="0" class="label">(D♭4) C♯4</text>
	<path class="guide" d="m 0,277.183 20000,0"/>
	<text y="261.626" x="0" class="label">(Middle C) C4</text>
	<path class="guide" d="m 0,261.626 20000,0"/>
	<text y="246.942" x="0" class="label">B3</text>
	<path class="guide" d="m 0,246.942 20000,0"/>
	<text y="233.082" x="0" class="label">(B♭3) A♯3</text>
	<path class="guide" d="m 0,233.082 20000,0"/>
	<text y="220.000" x="0" class="label">A3</text>
	<path class="guide" d="m 0,220.000 20000,0"/>
	<text y="207.652" x="0" class="label">(A♭3) G♯3</text>
	<path class="guide" d="m 0,207.652 20000,0"/>
	<text y="195.998" x="0" class="label">G3</text>
	<path class="guide" d="m 0,195.998 20000,0"/>
	<text y="184.997" x="0" class="label">(G♭3) F♯3</text>
	<path class="guide" d="m 0,184.997 20000,0"/>
	<text y="174.614" x="0" class="label">F3</text>
	<path class="guide" d="m 0,174.614 20000,0"/>
	<text y="164.814" x="0" class="label">E3</text>
	<path class="guide" d="m 0,164.814 20000,0"/>
	<text y="155.563" x="0" class="label">(E♭3) D♯3</text>
	<path class="guide" d="m 0,155.563 20000,0"/>
	<text y="146.832" x="0" class="label">D3</text>
	<path class="guide" d="m 0,146.832 20000,0"/>
	<text y="138.591" x="0" class="label">(D♭3) C♯3</text>
	<path class="guide" d="m 0,138.591 20000,0"/>
	<text y="130.813" x="0" class="label">(Low C) C3</text>
	<path class="guide" d="m 0,130.813 20000,0"/>
	<text y="123.471" x="0" class="label">B2</text>
	<path class="guide" d="m 0,123.471 20000,0"/>
	<text y="116.541" x="0" class="label">(B♭2) A♯2</text>
	<path class="guide" d="m 0,116.541 20000,0"/>
	<text y="110.000" x="0" class="label">A2</text>
	<path class="guide" d="m 0,110.000 20000,0"/>
	<text y="103.826" x="0" class="label">(A♭2) G♯2</text>
	<path class="guide" d="m 0,103.826 20000,0"/>
	<text y="97.9989" x="0" class="label">G2</text>
	<path class="guide" d="m 0,97.9989 20000,0"/>
	<text y="92.4986" x="0" class="label">(G♭2) F♯2</text>
	<path class="guide" d="m 0,92.4986 20000,0"/>
	<text y="87.3071" x="0" class="label">F2</text>
	<path class="guide" d="m 0,87.3071 20000,0"/>
	<text y="82.4069" x="0" class="label">E2</text>
	<path class="guide" d="m 0,82.4069 20000,0"/>
	<text y="77.7817" x="0" class="label">(E♭2) D♯2</text>
	<path class="guide" d="m 0,77.7817 20000,0"/>
	<text y="73.4162" x="0" class="label">D2</text>
	<path class="guide" d="m 0,73.4162 20000,0"/>
	<text y="69.2957" x="0" class="label">(D♭2) C♯2</text>
	<path class="guide" d="m 0,69.2957 20000,0"/>
	<text y="65.4064" x="0" class="label">(Deep C) C2</text>
	<path class="guide" d="m 0,65.4064 20000,0"/>
	<text y="61.7354" x="0" class="label">B1</text>
	<path class="guide" d="m 0,61.7354 20000,0"/>
	<text y="58.2705" x="0" class="label">(B♭1) A♯1</text>
	<path class="guide" d="m 0,58.2705 20000,0"/>
	<text y="55.0000" x="0" class="label">A1</text>
	<path class="guide" d="m 0,55.0000 20000,0"/>
	<text y="51.9131" x="0" class="label">(A♭1) G♯1</text>
	<path class="guide" d="m 0,51.9131 20000,0"/>
	<text y="48.9994" x="0" class="label">G1</text>
	<path class="guide" d="m 0,48.9994 20000,0"/>
	<text y="46.2493" x="0" class="label">(G♭1) F♯1</text>
	<path class="guide" d="m 0,46.2493 20000,0"/>
	<text y="43.6535" x="0" class="label">F1</text>
	<path class="guide" d="m 0,43.6535 20000,0"/>
	<text y="41.2034" x="0" class="label">E1</text>
	<path class="guide" d="m 0,41.2034 20000,0"/>
	<text y="38.8909" x="0" class="label">(E♭1) D♯1</text>
	<path class="guide" d="m 0,38.8909 20000,0"/>
	<text y="36.7081" x="0" class="label">D1</text>
	<path class="guide" d="m 0,36.7081 20000,0"/>
	<text y="34.6478" x="0" class="label">(D♭1) C♯1</text>
	<path class="guide" d="m 0,34.6478 20000,0"/>
	<text y="32.7032" x="0" class="label">(Pedal C) C1</text>
	<path class="guide" d="m 0,32.7032 20000,0"/>
	<text y="30.8677" x="0" class="label">B0</text>
	<path class="guide" d="m 0,30.8677 20000,0"/>
	<text y="29.1352" x="0" class="label">(B♭0) A♯0</text>
	<path class="guide" d="m 0,29.1352 20000,0"/>
	<text y="27.5000" x="0" class="label">(Double Pedal A) A0</text>
	<path class="guide" d="m 0,27.5000 20000,0"/>
	<text y="20" x="0" class="label">Minimum audible frequency</text>
	<path class="guide" d="m 0,20 20000,0"/>
</g>
<g
	inkscape:label="Graph 1"
	inkscape:groupmode="layer"
	id="graph1"/>
</svg>
